<mxfile host="app.diagrams.net" modified="2021-09-23T03:08:57.927Z" agent="5.0 (Macintosh; Intel Mac OS X 10_15_5) AppleWebKit/537.36 (KHTML, like Gecko) Chrome/92.0.4515.159 Safari/537.36" etag="DV7oFK9RE2bfD_gSRnhV" version="15.2.7" type="github">
  <diagram id="QmRN75m-rtGZk7lZ2Dvp" name="Page-1">
    <mxGraphModel dx="1852" dy="1798" grid="1" gridSize="10" guides="1" tooltips="1" connect="1" arrows="1" fold="1" page="1" pageScale="1" pageWidth="827" pageHeight="1169" math="0" shadow="0">
      <root>
        <mxCell id="0" />
        <mxCell id="1" parent="0" />
        <mxCell id="z9SemYEifn-63fCoDyUW-20" style="edgeStyle=orthogonalEdgeStyle;rounded=0;orthogonalLoop=1;jettySize=auto;html=1;exitX=1;exitY=0.5;exitDx=0;exitDy=0;entryX=0;entryY=0.5;entryDx=0;entryDy=0;strokeWidth=3;" edge="1" parent="1" source="z9SemYEifn-63fCoDyUW-14" target="z9SemYEifn-63fCoDyUW-13">
          <mxGeometry relative="1" as="geometry" />
        </mxCell>
        <mxCell id="z9SemYEifn-63fCoDyUW-14" value="" style="rounded=0;whiteSpace=wrap;html=1;fillColor=none;dashed=1;" vertex="1" parent="1">
          <mxGeometry x="-7.25" y="-70" width="90" height="120" as="geometry" />
        </mxCell>
        <mxCell id="YMw9R5XL1lstncFlxLX9-26" style="edgeStyle=orthogonalEdgeStyle;curved=1;orthogonalLoop=1;jettySize=auto;html=1;exitX=1;exitY=0.5;exitDx=0;exitDy=0;entryX=0;entryY=0.5;entryDx=0;entryDy=0;" parent="1" source="YMw9R5XL1lstncFlxLX9-1" target="YMw9R5XL1lstncFlxLX9-2" edge="1">
          <mxGeometry relative="1" as="geometry" />
        </mxCell>
        <mxCell id="YMw9R5XL1lstncFlxLX9-27" style="edgeStyle=orthogonalEdgeStyle;curved=1;orthogonalLoop=1;jettySize=auto;html=1;exitX=1;exitY=0.5;exitDx=0;exitDy=0;entryX=0;entryY=0.5;entryDx=0;entryDy=0;" parent="1" source="YMw9R5XL1lstncFlxLX9-1" target="YMw9R5XL1lstncFlxLX9-3" edge="1">
          <mxGeometry relative="1" as="geometry" />
        </mxCell>
        <mxCell id="YMw9R5XL1lstncFlxLX9-28" style="edgeStyle=orthogonalEdgeStyle;curved=1;orthogonalLoop=1;jettySize=auto;html=1;exitX=1;exitY=0.5;exitDx=0;exitDy=0;entryX=0;entryY=0.5;entryDx=0;entryDy=0;" parent="1" source="YMw9R5XL1lstncFlxLX9-1" target="YMw9R5XL1lstncFlxLX9-4" edge="1">
          <mxGeometry relative="1" as="geometry" />
        </mxCell>
        <mxCell id="YMw9R5XL1lstncFlxLX9-29" style="edgeStyle=orthogonalEdgeStyle;curved=1;orthogonalLoop=1;jettySize=auto;html=1;exitX=1;exitY=0.5;exitDx=0;exitDy=0;entryX=0;entryY=0.5;entryDx=0;entryDy=0;" parent="1" source="YMw9R5XL1lstncFlxLX9-1" target="YMw9R5XL1lstncFlxLX9-13" edge="1">
          <mxGeometry relative="1" as="geometry" />
        </mxCell>
        <mxCell id="YMw9R5XL1lstncFlxLX9-30" style="edgeStyle=orthogonalEdgeStyle;curved=1;orthogonalLoop=1;jettySize=auto;html=1;exitX=1;exitY=0.5;exitDx=0;exitDy=0;entryX=0;entryY=0.5;entryDx=0;entryDy=0;" parent="1" source="YMw9R5XL1lstncFlxLX9-1" target="YMw9R5XL1lstncFlxLX9-15" edge="1">
          <mxGeometry relative="1" as="geometry" />
        </mxCell>
        <mxCell id="YMw9R5XL1lstncFlxLX9-31" style="edgeStyle=orthogonalEdgeStyle;curved=1;orthogonalLoop=1;jettySize=auto;html=1;exitX=1;exitY=0.5;exitDx=0;exitDy=0;entryX=0;entryY=0.5;entryDx=0;entryDy=0;" parent="1" source="YMw9R5XL1lstncFlxLX9-1" target="YMw9R5XL1lstncFlxLX9-20" edge="1">
          <mxGeometry relative="1" as="geometry" />
        </mxCell>
        <mxCell id="YMw9R5XL1lstncFlxLX9-32" style="edgeStyle=orthogonalEdgeStyle;curved=1;orthogonalLoop=1;jettySize=auto;html=1;exitX=1;exitY=0.5;exitDx=0;exitDy=0;entryX=0;entryY=0.5;entryDx=0;entryDy=0;" parent="1" source="YMw9R5XL1lstncFlxLX9-1" target="YMw9R5XL1lstncFlxLX9-23" edge="1">
          <mxGeometry relative="1" as="geometry" />
        </mxCell>
        <mxCell id="YMw9R5XL1lstncFlxLX9-1" value="entrySourceBuilder" style="rounded=1;whiteSpace=wrap;html=1;" parent="1" vertex="1">
          <mxGeometry x="40" y="270" width="110" height="50" as="geometry" />
        </mxCell>
        <mxCell id="YMw9R5XL1lstncFlxLX9-7" style="edgeStyle=orthogonalEdgeStyle;orthogonalLoop=1;jettySize=auto;html=1;exitX=1;exitY=0.5;exitDx=0;exitDy=0;entryX=0;entryY=0.5;entryDx=0;entryDy=0;curved=1;" parent="1" source="YMw9R5XL1lstncFlxLX9-2" target="YMw9R5XL1lstncFlxLX9-5" edge="1">
          <mxGeometry relative="1" as="geometry">
            <Array as="points">
              <mxPoint x="430" y="145" />
              <mxPoint x="430" y="115" />
            </Array>
          </mxGeometry>
        </mxCell>
        <mxCell id="YMw9R5XL1lstncFlxLX9-8" style="edgeStyle=orthogonalEdgeStyle;orthogonalLoop=1;jettySize=auto;html=1;exitX=1;exitY=0.5;exitDx=0;exitDy=0;entryX=0;entryY=0.5;entryDx=0;entryDy=0;curved=1;" parent="1" source="YMw9R5XL1lstncFlxLX9-2" target="YMw9R5XL1lstncFlxLX9-6" edge="1">
          <mxGeometry relative="1" as="geometry" />
        </mxCell>
        <mxCell id="YMw9R5XL1lstncFlxLX9-2" value="AllDispatcher" style="rounded=1;whiteSpace=wrap;html=1;" parent="1" vertex="1">
          <mxGeometry x="260" y="130" width="110" height="30" as="geometry" />
        </mxCell>
        <mxCell id="YMw9R5XL1lstncFlxLX9-11" style="edgeStyle=orthogonalEdgeStyle;orthogonalLoop=1;jettySize=auto;html=1;exitX=1;exitY=0.5;exitDx=0;exitDy=0;entryX=0;entryY=0.5;entryDx=0;entryDy=0;curved=1;" parent="1" source="YMw9R5XL1lstncFlxLX9-3" target="YMw9R5XL1lstncFlxLX9-9" edge="1">
          <mxGeometry relative="1" as="geometry" />
        </mxCell>
        <mxCell id="YMw9R5XL1lstncFlxLX9-3" value="ServiceTrafficDipatcher" style="rounded=1;whiteSpace=wrap;html=1;" parent="1" vertex="1">
          <mxGeometry x="260" y="190" width="130" height="30" as="geometry" />
        </mxCell>
        <mxCell id="YMw9R5XL1lstncFlxLX9-12" style="edgeStyle=orthogonalEdgeStyle;orthogonalLoop=1;jettySize=auto;html=1;exitX=1;exitY=0.5;exitDx=0;exitDy=0;entryX=0;entryY=0.5;entryDx=0;entryDy=0;curved=1;" parent="1" source="YMw9R5XL1lstncFlxLX9-4" target="YMw9R5XL1lstncFlxLX9-10" edge="1">
          <mxGeometry relative="1" as="geometry" />
        </mxCell>
        <mxCell id="YMw9R5XL1lstncFlxLX9-4" value="InstanceTrafficDispatcher" style="rounded=1;whiteSpace=wrap;html=1;" parent="1" vertex="1">
          <mxGeometry x="260" y="240" width="140" height="30" as="geometry" />
        </mxCell>
        <mxCell id="YMw9R5XL1lstncFlxLX9-5" value="all_percentile" style="rounded=1;whiteSpace=wrap;html=1;" parent="1" vertex="1">
          <mxGeometry x="480" y="100" width="110" height="30" as="geometry" />
        </mxCell>
        <mxCell id="YMw9R5XL1lstncFlxLX9-6" value="all_heatmap" style="rounded=1;whiteSpace=wrap;html=1;" parent="1" vertex="1">
          <mxGeometry x="480" y="150" width="110" height="30" as="geometry" />
        </mxCell>
        <mxCell id="YMw9R5XL1lstncFlxLX9-9" value="service_traffic" style="rounded=1;whiteSpace=wrap;html=1;" parent="1" vertex="1">
          <mxGeometry x="480" y="190" width="110" height="30" as="geometry" />
        </mxCell>
        <mxCell id="YMw9R5XL1lstncFlxLX9-10" value="instance_traffic" style="rounded=1;whiteSpace=wrap;html=1;" parent="1" vertex="1">
          <mxGeometry x="480" y="240" width="110" height="30" as="geometry" />
        </mxCell>
        <mxCell id="YMw9R5XL1lstncFlxLX9-19" style="edgeStyle=orthogonalEdgeStyle;curved=1;orthogonalLoop=1;jettySize=auto;html=1;exitX=1;exitY=0.5;exitDx=0;exitDy=0;entryX=0;entryY=0.5;entryDx=0;entryDy=0;" parent="1" source="YMw9R5XL1lstncFlxLX9-13" target="YMw9R5XL1lstncFlxLX9-14" edge="1">
          <mxGeometry relative="1" as="geometry" />
        </mxCell>
        <mxCell id="YMw9R5XL1lstncFlxLX9-13" value="EndpointTrafficDispatcher" style="rounded=1;whiteSpace=wrap;html=1;" parent="1" vertex="1">
          <mxGeometry x="260" y="280" width="140" height="30" as="geometry" />
        </mxCell>
        <mxCell id="YMw9R5XL1lstncFlxLX9-14" value="endpoint_traffic" style="rounded=1;whiteSpace=wrap;html=1;" parent="1" vertex="1">
          <mxGeometry x="480" y="280" width="110" height="30" as="geometry" />
        </mxCell>
        <mxCell id="YMw9R5XL1lstncFlxLX9-18" style="edgeStyle=orthogonalEdgeStyle;curved=1;orthogonalLoop=1;jettySize=auto;html=1;exitX=1;exitY=0.5;exitDx=0;exitDy=0;entryX=0;entryY=0.5;entryDx=0;entryDy=0;" parent="1" source="YMw9R5XL1lstncFlxLX9-15" target="YMw9R5XL1lstncFlxLX9-17" edge="1">
          <mxGeometry relative="1" as="geometry" />
        </mxCell>
        <mxCell id="YMw9R5XL1lstncFlxLX9-15" value="ServiceCallRelationDispatcher" style="rounded=1;whiteSpace=wrap;html=1;" parent="1" vertex="1">
          <mxGeometry x="260" y="340" width="172.5" height="30" as="geometry" />
        </mxCell>
        <mxCell id="YMw9R5XL1lstncFlxLX9-17" value="service_relation_server_side" style="rounded=1;whiteSpace=wrap;html=1;" parent="1" vertex="1">
          <mxGeometry x="500" y="340" width="170" height="30" as="geometry" />
        </mxCell>
        <mxCell id="YMw9R5XL1lstncFlxLX9-22" style="edgeStyle=orthogonalEdgeStyle;curved=1;orthogonalLoop=1;jettySize=auto;html=1;exitX=1;exitY=0.5;exitDx=0;exitDy=0;entryX=0;entryY=0.5;entryDx=0;entryDy=0;" parent="1" source="YMw9R5XL1lstncFlxLX9-20" target="YMw9R5XL1lstncFlxLX9-21" edge="1">
          <mxGeometry relative="1" as="geometry" />
        </mxCell>
        <mxCell id="YMw9R5XL1lstncFlxLX9-20" value="ServiceInstanceCallRelationDispatcher" style="rounded=1;whiteSpace=wrap;html=1;" parent="1" vertex="1">
          <mxGeometry x="260" y="385" width="212.5" height="35" as="geometry" />
        </mxCell>
        <mxCell id="YMw9R5XL1lstncFlxLX9-21" value="service_instance_relation_server_side" style="rounded=1;whiteSpace=wrap;html=1;" parent="1" vertex="1">
          <mxGeometry x="500" y="387.5" width="210" height="30" as="geometry" />
        </mxCell>
        <mxCell id="YMw9R5XL1lstncFlxLX9-25" style="edgeStyle=orthogonalEdgeStyle;curved=1;orthogonalLoop=1;jettySize=auto;html=1;exitX=1;exitY=0.5;exitDx=0;exitDy=0;" parent="1" source="YMw9R5XL1lstncFlxLX9-23" target="YMw9R5XL1lstncFlxLX9-24" edge="1">
          <mxGeometry relative="1" as="geometry" />
        </mxCell>
        <mxCell id="YMw9R5XL1lstncFlxLX9-23" value="EndpointCallRelationDispatcher" style="rounded=1;whiteSpace=wrap;html=1;" parent="1" vertex="1">
          <mxGeometry x="260" y="440" width="212.5" height="30" as="geometry" />
        </mxCell>
        <mxCell id="YMw9R5XL1lstncFlxLX9-24" value="endpoint_relation_server_side" style="rounded=1;whiteSpace=wrap;html=1;" parent="1" vertex="1">
          <mxGeometry x="500" y="440" width="210" height="30" as="geometry" />
        </mxCell>
        <mxCell id="YMw9R5XL1lstncFlxLX9-40" style="edgeStyle=orthogonalEdgeStyle;curved=1;orthogonalLoop=1;jettySize=auto;html=1;exitX=1;exitY=0.5;exitDx=0;exitDy=0;entryX=0;entryY=0.5;entryDx=0;entryDy=0;" parent="1" source="YMw9R5XL1lstncFlxLX9-33" target="YMw9R5XL1lstncFlxLX9-34" edge="1">
          <mxGeometry relative="1" as="geometry" />
        </mxCell>
        <mxCell id="YMw9R5XL1lstncFlxLX9-41" style="edgeStyle=orthogonalEdgeStyle;curved=1;orthogonalLoop=1;jettySize=auto;html=1;exitX=1;exitY=0.5;exitDx=0;exitDy=0;entryX=0;entryY=0.5;entryDx=0;entryDy=0;" parent="1" source="YMw9R5XL1lstncFlxLX9-33" target="YMw9R5XL1lstncFlxLX9-38" edge="1">
          <mxGeometry relative="1" as="geometry" />
        </mxCell>
        <mxCell id="YMw9R5XL1lstncFlxLX9-62" style="edgeStyle=orthogonalEdgeStyle;curved=1;orthogonalLoop=1;jettySize=auto;html=1;exitX=1;exitY=0.5;exitDx=0;exitDy=0;entryX=0;entryY=0.5;entryDx=0;entryDy=0;" parent="1" source="YMw9R5XL1lstncFlxLX9-33" target="YMw9R5XL1lstncFlxLX9-47" edge="1">
          <mxGeometry relative="1" as="geometry" />
        </mxCell>
        <mxCell id="YMw9R5XL1lstncFlxLX9-63" style="edgeStyle=orthogonalEdgeStyle;curved=1;orthogonalLoop=1;jettySize=auto;html=1;exitX=1;exitY=0.5;exitDx=0;exitDy=0;entryX=0;entryY=0.5;entryDx=0;entryDy=0;" parent="1" source="YMw9R5XL1lstncFlxLX9-33" target="YMw9R5XL1lstncFlxLX9-53" edge="1">
          <mxGeometry relative="1" as="geometry" />
        </mxCell>
        <mxCell id="YMw9R5XL1lstncFlxLX9-33" value="exitSourceBuilder" style="rounded=1;whiteSpace=wrap;html=1;" parent="1" vertex="1">
          <mxGeometry x="30" y="650" width="110" height="50" as="geometry" />
        </mxCell>
        <mxCell id="YMw9R5XL1lstncFlxLX9-36" style="edgeStyle=orthogonalEdgeStyle;curved=1;orthogonalLoop=1;jettySize=auto;html=1;exitX=1;exitY=0.5;exitDx=0;exitDy=0;entryX=0;entryY=0.5;entryDx=0;entryDy=0;" parent="1" source="YMw9R5XL1lstncFlxLX9-34" target="YMw9R5XL1lstncFlxLX9-35" edge="1">
          <mxGeometry relative="1" as="geometry" />
        </mxCell>
        <mxCell id="YMw9R5XL1lstncFlxLX9-34" value="ServiceCallRelationDispatcher" style="rounded=1;whiteSpace=wrap;html=1;" parent="1" vertex="1">
          <mxGeometry x="250" y="570" width="172.5" height="30" as="geometry" />
        </mxCell>
        <mxCell id="YMw9R5XL1lstncFlxLX9-35" value="service_instance_relation_client_side" style="rounded=1;whiteSpace=wrap;html=1;" parent="1" vertex="1">
          <mxGeometry x="500" y="570" width="210" height="30" as="geometry" />
        </mxCell>
        <mxCell id="YMw9R5XL1lstncFlxLX9-37" style="edgeStyle=orthogonalEdgeStyle;curved=1;orthogonalLoop=1;jettySize=auto;html=1;exitX=1;exitY=0.5;exitDx=0;exitDy=0;entryX=0;entryY=0.5;entryDx=0;entryDy=0;" parent="1" source="YMw9R5XL1lstncFlxLX9-38" target="YMw9R5XL1lstncFlxLX9-39" edge="1">
          <mxGeometry relative="1" as="geometry" />
        </mxCell>
        <mxCell id="YMw9R5XL1lstncFlxLX9-38" value="ServiceInstanceCallRelationDispatcher" style="rounded=1;whiteSpace=wrap;html=1;" parent="1" vertex="1">
          <mxGeometry x="250" y="630" width="212.5" height="35" as="geometry" />
        </mxCell>
        <mxCell id="YMw9R5XL1lstncFlxLX9-39" value="service_instance_relation_client_side" style="rounded=1;whiteSpace=wrap;html=1;" parent="1" vertex="1">
          <mxGeometry x="500" y="632.5" width="210" height="30" as="geometry" />
        </mxCell>
        <mxCell id="YMw9R5XL1lstncFlxLX9-46" style="edgeStyle=orthogonalEdgeStyle;curved=1;orthogonalLoop=1;jettySize=auto;html=1;exitX=1;exitY=0.5;exitDx=0;exitDy=0;entryX=0;entryY=0.5;entryDx=0;entryDy=0;" parent="1" source="YMw9R5XL1lstncFlxLX9-47" target="YMw9R5XL1lstncFlxLX9-48" edge="1">
          <mxGeometry relative="1" as="geometry" />
        </mxCell>
        <mxCell id="YMw9R5XL1lstncFlxLX9-47" value="ServiceMetaDispatcher" style="rounded=1;whiteSpace=wrap;html=1;" parent="1" vertex="1">
          <mxGeometry x="250" y="690" width="212.5" height="35" as="geometry" />
        </mxCell>
        <mxCell id="YMw9R5XL1lstncFlxLX9-48" value="service_traffic" style="rounded=1;whiteSpace=wrap;html=1;" parent="1" vertex="1">
          <mxGeometry x="500" y="692.5" width="210" height="30" as="geometry" />
        </mxCell>
        <mxCell id="YMw9R5XL1lstncFlxLX9-64" style="edgeStyle=orthogonalEdgeStyle;curved=1;orthogonalLoop=1;jettySize=auto;html=1;exitX=1;exitY=0.5;exitDx=0;exitDy=0;entryX=0;entryY=0.5;entryDx=0;entryDy=0;" parent="1" source="YMw9R5XL1lstncFlxLX9-50" target="YMw9R5XL1lstncFlxLX9-52" edge="1">
          <mxGeometry relative="1" as="geometry" />
        </mxCell>
        <mxCell id="YMw9R5XL1lstncFlxLX9-50" value="dbSlowStatementBuilder" style="rounded=1;whiteSpace=wrap;html=1;" parent="1" vertex="1">
          <mxGeometry x="15" y="910" width="140" height="50" as="geometry" />
        </mxCell>
        <mxCell id="YMw9R5XL1lstncFlxLX9-66" style="edgeStyle=orthogonalEdgeStyle;curved=1;orthogonalLoop=1;jettySize=auto;html=1;exitX=1;exitY=0.5;exitDx=0;exitDy=0;entryX=0;entryY=0.5;entryDx=0;entryDy=0;" parent="1" source="YMw9R5XL1lstncFlxLX9-51" target="YMw9R5XL1lstncFlxLX9-65" edge="1">
          <mxGeometry relative="1" as="geometry" />
        </mxCell>
        <mxCell id="YMw9R5XL1lstncFlxLX9-51" value="logicEndpointBuilder" style="rounded=1;whiteSpace=wrap;html=1;" parent="1" vertex="1">
          <mxGeometry x="15" y="1010" width="140" height="50" as="geometry" />
        </mxCell>
        <mxCell id="YMw9R5XL1lstncFlxLX9-52" value="top_n_database_statement" style="rounded=1;whiteSpace=wrap;html=1;" parent="1" vertex="1">
          <mxGeometry x="252.5" y="920" width="210" height="30" as="geometry" />
        </mxCell>
        <mxCell id="YMw9R5XL1lstncFlxLX9-58" style="edgeStyle=orthogonalEdgeStyle;curved=1;orthogonalLoop=1;jettySize=auto;html=1;exitX=1;exitY=0.5;exitDx=0;exitDy=0;entryX=0;entryY=0.5;entryDx=0;entryDy=0;" parent="1" source="YMw9R5XL1lstncFlxLX9-53" target="YMw9R5XL1lstncFlxLX9-54" edge="1">
          <mxGeometry relative="1" as="geometry" />
        </mxCell>
        <mxCell id="YMw9R5XL1lstncFlxLX9-59" style="edgeStyle=orthogonalEdgeStyle;curved=1;orthogonalLoop=1;jettySize=auto;html=1;exitX=1;exitY=0.5;exitDx=0;exitDy=0;" parent="1" source="YMw9R5XL1lstncFlxLX9-53" target="YMw9R5XL1lstncFlxLX9-55" edge="1">
          <mxGeometry relative="1" as="geometry" />
        </mxCell>
        <mxCell id="YMw9R5XL1lstncFlxLX9-60" style="edgeStyle=orthogonalEdgeStyle;curved=1;orthogonalLoop=1;jettySize=auto;html=1;exitX=1;exitY=0.5;exitDx=0;exitDy=0;entryX=0;entryY=0.5;entryDx=0;entryDy=0;" parent="1" source="YMw9R5XL1lstncFlxLX9-53" target="YMw9R5XL1lstncFlxLX9-56" edge="1">
          <mxGeometry relative="1" as="geometry" />
        </mxCell>
        <mxCell id="YMw9R5XL1lstncFlxLX9-61" style="edgeStyle=orthogonalEdgeStyle;curved=1;orthogonalLoop=1;jettySize=auto;html=1;exitX=1;exitY=0.5;exitDx=0;exitDy=0;entryX=0;entryY=0.5;entryDx=0;entryDy=0;" parent="1" source="YMw9R5XL1lstncFlxLX9-53" target="YMw9R5XL1lstncFlxLX9-57" edge="1">
          <mxGeometry relative="1" as="geometry" />
        </mxCell>
        <mxCell id="YMw9R5XL1lstncFlxLX9-53" value="DatabaseAccessDispatcher" style="rounded=1;whiteSpace=wrap;html=1;" parent="1" vertex="1">
          <mxGeometry x="250" y="800" width="212.5" height="35" as="geometry" />
        </mxCell>
        <mxCell id="YMw9R5XL1lstncFlxLX9-54" value="database_access_resp_time" style="rounded=1;whiteSpace=wrap;html=1;" parent="1" vertex="1">
          <mxGeometry x="522.5" y="742.5" width="210" height="30" as="geometry" />
        </mxCell>
        <mxCell id="YMw9R5XL1lstncFlxLX9-55" value="database_access_cpm" style="rounded=1;whiteSpace=wrap;html=1;" parent="1" vertex="1">
          <mxGeometry x="522.5" y="782.5" width="210" height="30" as="geometry" />
        </mxCell>
        <mxCell id="YMw9R5XL1lstncFlxLX9-56" value="database_access_percentile" style="rounded=1;whiteSpace=wrap;html=1;" parent="1" vertex="1">
          <mxGeometry x="522.5" y="822.5" width="210" height="30" as="geometry" />
        </mxCell>
        <mxCell id="YMw9R5XL1lstncFlxLX9-57" value="database_access_sla" style="rounded=1;whiteSpace=wrap;html=1;" parent="1" vertex="1">
          <mxGeometry x="522.5" y="862.5" width="210" height="30" as="geometry" />
        </mxCell>
        <mxCell id="YMw9R5XL1lstncFlxLX9-65" value="endpoint" style="rounded=1;whiteSpace=wrap;html=1;" parent="1" vertex="1">
          <mxGeometry x="251.25" y="1020" width="210" height="30" as="geometry" />
        </mxCell>
        <mxCell id="YMw9R5XL1lstncFlxLX9-68" style="edgeStyle=orthogonalEdgeStyle;curved=1;orthogonalLoop=1;jettySize=auto;html=1;exitX=1;exitY=0.5;exitDx=0;exitDy=0;entryX=0;entryY=0.5;entryDx=0;entryDy=0;" parent="1" source="YMw9R5XL1lstncFlxLX9-67" target="YMw9R5XL1lstncFlxLX9-1" edge="1">
          <mxGeometry relative="1" as="geometry" />
        </mxCell>
        <mxCell id="YMw9R5XL1lstncFlxLX9-69" style="edgeStyle=orthogonalEdgeStyle;curved=1;orthogonalLoop=1;jettySize=auto;html=1;exitX=1;exitY=0.5;exitDx=0;exitDy=0;entryX=0;entryY=0.5;entryDx=0;entryDy=0;" parent="1" source="YMw9R5XL1lstncFlxLX9-67" target="YMw9R5XL1lstncFlxLX9-33" edge="1">
          <mxGeometry relative="1" as="geometry" />
        </mxCell>
        <mxCell id="YMw9R5XL1lstncFlxLX9-70" style="edgeStyle=orthogonalEdgeStyle;curved=1;orthogonalLoop=1;jettySize=auto;html=1;exitX=1;exitY=0.5;exitDx=0;exitDy=0;entryX=0;entryY=0.5;entryDx=0;entryDy=0;" parent="1" source="YMw9R5XL1lstncFlxLX9-67" target="YMw9R5XL1lstncFlxLX9-50" edge="1">
          <mxGeometry relative="1" as="geometry" />
        </mxCell>
        <mxCell id="YMw9R5XL1lstncFlxLX9-71" style="edgeStyle=orthogonalEdgeStyle;curved=1;orthogonalLoop=1;jettySize=auto;html=1;exitX=1;exitY=0.5;exitDx=0;exitDy=0;entryX=0;entryY=0.5;entryDx=0;entryDy=0;" parent="1" source="YMw9R5XL1lstncFlxLX9-67" target="YMw9R5XL1lstncFlxLX9-51" edge="1">
          <mxGeometry relative="1" as="geometry" />
        </mxCell>
        <mxCell id="YMw9R5XL1lstncFlxLX9-67" value="MultiscopesAnalysisListener" style="rounded=1;whiteSpace=wrap;html=1;" parent="1" vertex="1">
          <mxGeometry x="-290" y="720" width="160" height="50" as="geometry" />
        </mxCell>
        <mxCell id="YMw9R5XL1lstncFlxLX9-72" value="NetworkAddressAliasMappingListener" style="rounded=1;whiteSpace=wrap;html=1;" parent="1" vertex="1">
          <mxGeometry x="-290" y="1190" width="210" height="50" as="geometry" />
        </mxCell>
        <mxCell id="YMw9R5XL1lstncFlxLX9-77" style="edgeStyle=orthogonalEdgeStyle;curved=1;orthogonalLoop=1;jettySize=auto;html=1;exitX=1;exitY=0.5;exitDx=0;exitDy=0;entryX=0;entryY=0.5;entryDx=0;entryDy=0;" parent="1" source="YMw9R5XL1lstncFlxLX9-73" target="YMw9R5XL1lstncFlxLX9-74" edge="1">
          <mxGeometry relative="1" as="geometry" />
        </mxCell>
        <mxCell id="YMw9R5XL1lstncFlxLX9-73" value="SegmentAnalysisListener" style="rounded=1;whiteSpace=wrap;html=1;" parent="1" vertex="1">
          <mxGeometry x="-290" y="1310" width="210" height="50" as="geometry" />
        </mxCell>
        <mxCell id="YMw9R5XL1lstncFlxLX9-76" style="edgeStyle=orthogonalEdgeStyle;curved=1;orthogonalLoop=1;jettySize=auto;html=1;exitX=1;exitY=0.5;exitDx=0;exitDy=0;entryX=0;entryY=0.5;entryDx=0;entryDy=0;" parent="1" source="YMw9R5XL1lstncFlxLX9-74" target="YMw9R5XL1lstncFlxLX9-75" edge="1">
          <mxGeometry relative="1" as="geometry" />
        </mxCell>
        <mxCell id="YMw9R5XL1lstncFlxLX9-74" value="SegmentDispatcher" style="rounded=1;whiteSpace=wrap;html=1;" parent="1" vertex="1">
          <mxGeometry x="15" y="1317.5" width="155" height="32.5" as="geometry" />
        </mxCell>
        <mxCell id="YMw9R5XL1lstncFlxLX9-75" value="segment" style="rounded=1;whiteSpace=wrap;html=1;" parent="1" vertex="1">
          <mxGeometry x="210" y="1317.5" width="155" height="32.5" as="geometry" />
        </mxCell>
        <mxCell id="YMw9R5XL1lstncFlxLX9-79" style="edgeStyle=orthogonalEdgeStyle;curved=1;orthogonalLoop=1;jettySize=auto;html=1;exitX=1;exitY=0.5;exitDx=0;exitDy=0;entryX=0;entryY=0.5;entryDx=0;entryDy=0;" parent="1" source="YMw9R5XL1lstncFlxLX9-78" target="YMw9R5XL1lstncFlxLX9-67" edge="1">
          <mxGeometry relative="1" as="geometry" />
        </mxCell>
        <mxCell id="YMw9R5XL1lstncFlxLX9-80" style="edgeStyle=orthogonalEdgeStyle;curved=1;orthogonalLoop=1;jettySize=auto;html=1;exitX=1;exitY=0.5;exitDx=0;exitDy=0;entryX=0;entryY=0.5;entryDx=0;entryDy=0;" parent="1" source="YMw9R5XL1lstncFlxLX9-78" target="YMw9R5XL1lstncFlxLX9-72" edge="1">
          <mxGeometry relative="1" as="geometry" />
        </mxCell>
        <mxCell id="YMw9R5XL1lstncFlxLX9-81" style="edgeStyle=orthogonalEdgeStyle;curved=1;orthogonalLoop=1;jettySize=auto;html=1;exitX=1;exitY=0.5;exitDx=0;exitDy=0;entryX=0;entryY=0.5;entryDx=0;entryDy=0;" parent="1" source="YMw9R5XL1lstncFlxLX9-78" target="YMw9R5XL1lstncFlxLX9-73" edge="1">
          <mxGeometry relative="1" as="geometry" />
        </mxCell>
        <mxCell id="YMw9R5XL1lstncFlxLX9-78" value="TraceAnalyzer" style="rounded=1;whiteSpace=wrap;html=1;" parent="1" vertex="1">
          <mxGeometry x="-640" y="1020" width="160" height="50" as="geometry" />
        </mxCell>
        <mxCell id="z9SemYEifn-63fCoDyUW-24" style="edgeStyle=orthogonalEdgeStyle;rounded=0;orthogonalLoop=1;jettySize=auto;html=1;exitX=1;exitY=0.5;exitDx=0;exitDy=0;entryX=0;entryY=0.5;entryDx=0;entryDy=0;strokeWidth=3;" edge="1" parent="1" source="z9SemYEifn-63fCoDyUW-1" target="z9SemYEifn-63fCoDyUW-2">
          <mxGeometry relative="1" as="geometry" />
        </mxCell>
        <mxCell id="z9SemYEifn-63fCoDyUW-1" value="TraceSegmentHandler" style="rounded=0;whiteSpace=wrap;html=1;" vertex="1" parent="1">
          <mxGeometry x="-407.25" y="-290" width="130" height="60" as="geometry" />
        </mxCell>
        <mxCell id="z9SemYEifn-63fCoDyUW-25" style="edgeStyle=orthogonalEdgeStyle;rounded=0;orthogonalLoop=1;jettySize=auto;html=1;exitX=1;exitY=0.5;exitDx=0;exitDy=0;entryX=0;entryY=0.5;entryDx=0;entryDy=0;strokeWidth=3;" edge="1" parent="1" source="z9SemYEifn-63fCoDyUW-2" target="z9SemYEifn-63fCoDyUW-3">
          <mxGeometry relative="1" as="geometry" />
        </mxCell>
        <mxCell id="z9SemYEifn-63fCoDyUW-2" value="TraceAnalyzer" style="rounded=0;whiteSpace=wrap;html=1;" vertex="1" parent="1">
          <mxGeometry x="-227.25" y="-290" width="130" height="60" as="geometry" />
        </mxCell>
        <mxCell id="z9SemYEifn-63fCoDyUW-26" style="edgeStyle=orthogonalEdgeStyle;rounded=0;orthogonalLoop=1;jettySize=auto;html=1;exitX=1;exitY=0.5;exitDx=0;exitDy=0;entryX=0;entryY=0.5;entryDx=0;entryDy=0;strokeWidth=3;" edge="1" parent="1" source="z9SemYEifn-63fCoDyUW-3" target="z9SemYEifn-63fCoDyUW-22">
          <mxGeometry relative="1" as="geometry" />
        </mxCell>
        <mxCell id="z9SemYEifn-63fCoDyUW-29" style="edgeStyle=orthogonalEdgeStyle;rounded=0;orthogonalLoop=1;jettySize=auto;html=1;exitX=0.5;exitY=1;exitDx=0;exitDy=0;entryX=0.5;entryY=0;entryDx=0;entryDy=0;strokeWidth=1;dashed=1;shape=flexArrow;" edge="1" parent="1" source="z9SemYEifn-63fCoDyUW-3" target="z9SemYEifn-63fCoDyUW-4">
          <mxGeometry relative="1" as="geometry" />
        </mxCell>
        <mxCell id="z9SemYEifn-63fCoDyUW-3" value="AnalysisListener" style="rounded=0;whiteSpace=wrap;html=1;" vertex="1" parent="1">
          <mxGeometry x="-22.25" y="-290" width="130" height="60" as="geometry" />
        </mxCell>
        <mxCell id="z9SemYEifn-63fCoDyUW-4" value="MultiscopesAnalysisListener" style="rounded=0;whiteSpace=wrap;html=1;" vertex="1" parent="1">
          <mxGeometry x="-69.25" y="-190" width="220" height="30" as="geometry" />
        </mxCell>
        <mxCell id="z9SemYEifn-63fCoDyUW-5" value="NetworkAddressAliasMappingListener" style="rounded=0;whiteSpace=wrap;html=1;" vertex="1" parent="1">
          <mxGeometry x="-69.25" y="-160" width="220" height="30" as="geometry" />
        </mxCell>
        <mxCell id="z9SemYEifn-63fCoDyUW-21" style="edgeStyle=orthogonalEdgeStyle;rounded=0;orthogonalLoop=1;jettySize=auto;html=1;exitX=0.5;exitY=1;exitDx=0;exitDy=0;strokeWidth=3;entryX=0.5;entryY=0;entryDx=0;entryDy=0;" edge="1" parent="1" source="z9SemYEifn-63fCoDyUW-7" target="z9SemYEifn-63fCoDyUW-28">
          <mxGeometry relative="1" as="geometry">
            <mxPoint x="40.75" y="-80" as="targetPoint" />
          </mxGeometry>
        </mxCell>
        <mxCell id="z9SemYEifn-63fCoDyUW-7" value="SegmentAnalysisListener" style="rounded=0;whiteSpace=wrap;html=1;" vertex="1" parent="1">
          <mxGeometry x="-69.25" y="-130" width="220" height="30" as="geometry" />
        </mxCell>
        <mxCell id="z9SemYEifn-63fCoDyUW-8" value="parseEntry" style="ellipse;whiteSpace=wrap;html=1;" vertex="1" parent="1">
          <mxGeometry x="-9.25" y="-40" width="92" height="30" as="geometry" />
        </mxCell>
        <mxCell id="z9SemYEifn-63fCoDyUW-9" value="parseFirst" style="ellipse;whiteSpace=wrap;html=1;" vertex="1" parent="1">
          <mxGeometry x="-9.25" y="-70" width="92" height="30" as="geometry" />
        </mxCell>
        <mxCell id="z9SemYEifn-63fCoDyUW-10" value="parseExit" style="ellipse;whiteSpace=wrap;html=1;" vertex="1" parent="1">
          <mxGeometry x="-9.25" y="-10" width="92" height="30" as="geometry" />
        </mxCell>
        <mxCell id="z9SemYEifn-63fCoDyUW-19" style="edgeStyle=orthogonalEdgeStyle;rounded=0;orthogonalLoop=1;jettySize=auto;html=1;exitX=1;exitY=0.5;exitDx=0;exitDy=0;entryX=0;entryY=0.5;entryDx=0;entryDy=0;strokeWidth=3;" edge="1" parent="1" source="z9SemYEifn-63fCoDyUW-11" target="z9SemYEifn-63fCoDyUW-14">
          <mxGeometry relative="1" as="geometry" />
        </mxCell>
        <mxCell id="z9SemYEifn-63fCoDyUW-11" value="parseSegment" style="ellipse;whiteSpace=wrap;html=1;" vertex="1" parent="1">
          <mxGeometry x="-131.25" y="-25" width="84" height="30" as="geometry" />
        </mxCell>
        <mxCell id="z9SemYEifn-63fCoDyUW-12" value="parseLocal" style="ellipse;whiteSpace=wrap;html=1;" vertex="1" parent="1">
          <mxGeometry x="-9.25" y="20" width="92" height="30" as="geometry" />
        </mxCell>
        <mxCell id="z9SemYEifn-63fCoDyUW-13" value="build" style="ellipse;whiteSpace=wrap;html=1;" vertex="1" parent="1">
          <mxGeometry x="142.75" y="-25" width="92" height="30" as="geometry" />
        </mxCell>
        <mxCell id="z9SemYEifn-63fCoDyUW-27" style="edgeStyle=orthogonalEdgeStyle;rounded=0;orthogonalLoop=1;jettySize=auto;html=1;exitX=1;exitY=0.5;exitDx=0;exitDy=0;entryX=0;entryY=0.5;entryDx=0;entryDy=0;strokeWidth=3;" edge="1" parent="1" source="z9SemYEifn-63fCoDyUW-22" target="z9SemYEifn-63fCoDyUW-23">
          <mxGeometry relative="1" as="geometry" />
        </mxCell>
        <mxCell id="z9SemYEifn-63fCoDyUW-22" value="sourceReceiver" style="rounded=0;whiteSpace=wrap;html=1;" vertex="1" parent="1">
          <mxGeometry x="269.75" y="-290" width="130" height="60" as="geometry" />
        </mxCell>
        <mxCell id="z9SemYEifn-63fCoDyUW-23" value="dispatcher" style="rounded=0;whiteSpace=wrap;html=1;" vertex="1" parent="1">
          <mxGeometry x="467.25" y="-290" width="130" height="60" as="geometry" />
        </mxCell>
        <mxCell id="z9SemYEifn-63fCoDyUW-28" value="" style="ellipse;whiteSpace=wrap;html=1;dashed=1;fillColor=none;" vertex="1" parent="1">
          <mxGeometry x="-187.25" y="-80" width="460" height="140" as="geometry" />
        </mxCell>
      </root>
    </mxGraphModel>
  </diagram>
</mxfile>
